<?xml version="1.0" encoding="iso-8859-1"?>
<!-- Generator: Adobe Illustrator 18.0.0, SVG Export Plug-In . SVG Version: 6.00 Build 0)  -->
<!DOCTYPE svg PUBLIC "-//W3C//DTD SVG 1.1 Basic//EN" "http://www.w3.org/Graphics/SVG/1.1/DTD/svg11-basic.dtd">
<svg version="1.1" baseProfile="basic" id="Layer_1"
	 xmlns="http://www.w3.org/2000/svg" xmlns:xlink="http://www.w3.org/1999/xlink" x="0px" y="0px" viewBox="0 0 12.5 12.5"
	 xml:space="preserve">
<g id="Shape_1_5_">
	<path fill-rule="evenodd" clip-rule="evenodd" fill="#958C8C" d="M6.25,0C2.798,0,0,2.798,0,6.25c0,3.452,2.798,6.25,6.25,6.25
		c3.452,0,6.25-2.798,6.25-6.25C12.5,2.798,9.702,0,6.25,0z M6.25,11.364c-2.824,0-5.114-2.289-5.114-5.113
		c0-2.824,2.289-5.114,5.114-5.114c2.824,0,5.114,2.29,5.114,5.114C11.364,9.074,9.074,11.364,6.25,11.364z M6.818,6.015V2.841
		c0-0.314-0.254-0.568-0.568-0.568c-0.314,0-0.568,0.254-0.568,0.568V6.25c0,0.001,0,0.002,0,0.004c0,0.036,0.004,0.072,0.011,0.107
		c0.003,0.017,0.01,0.033,0.015,0.05c0.006,0.019,0.01,0.038,0.017,0.056c0.008,0.02,0.019,0.038,0.03,0.056
		c0.008,0.014,0.014,0.028,0.023,0.042c0.021,0.031,0.045,0.061,0.071,0.087l1.607,1.607c0.222,0.222,0.582,0.222,0.804,0
		c0.222-0.222,0.222-0.582,0-0.803L6.818,6.015z"/>
</g>
</svg>
