<?xml version="1.0" encoding="iso-8859-1"?>
<!-- Generator: Adobe Illustrator 18.0.0, SVG Export Plug-In . SVG Version: 6.00 Build 0)  -->
<!DOCTYPE svg PUBLIC "-//W3C//DTD SVG 1.1 Basic//EN" "http://www.w3.org/Graphics/SVG/1.1/DTD/svg11-basic.dtd">
<svg version="1.1" baseProfile="basic" id="Layer_1"
	 xmlns="http://www.w3.org/2000/svg" xmlns:xlink="http://www.w3.org/1999/xlink" x="0px" y="0px" viewBox="0 0 17 17.5"
	 xml:space="preserve">
<g id="Shape_18">
	<path fill-rule="evenodd" clip-rule="evenodd" fill="#FFFFFF" d="M14.474,0H2.526C1.133,0,0,1.155,0,2.574v8.962
		c0,1.419,1.133,2.573,2.526,2.573h4.328l5.138,3.391h0v-3.391h2.482c1.393,0,2.526-1.154,2.526-2.573V2.574
		C17,1.155,15.867,0,14.474,0z M15.514,11.536c0,0.584-0.467,1.06-1.04,1.06h-3.968v2.12l-3.213-2.12H2.526
		c-0.574,0-1.04-0.475-1.04-1.06V2.574c0-0.584,0.467-1.06,1.04-1.06h11.948c0.574,0,1.04,0.476,1.04,1.06V11.536z"/>
</g>
</svg>
