<?xml version="1.0" encoding="iso-8859-1"?>
<!-- Generator: Adobe Illustrator 18.0.0, SVG Export Plug-In . SVG Version: 6.00 Build 0)  -->
<!DOCTYPE svg PUBLIC "-//W3C//DTD SVG 1.1 Basic//EN" "http://www.w3.org/Graphics/SVG/1.1/DTD/svg11-basic.dtd">
<svg version="1.1" baseProfile="basic" id="Layer_1"
	 xmlns="http://www.w3.org/2000/svg" xmlns:xlink="http://www.w3.org/1999/xlink" x="0px" y="0px" viewBox="0 0 50 50"
	 xml:space="preserve">
<image display="none" overflow="visible" width="100" height="100" id="Layer_13_xA0_Image_1_" xlink:href="27E545CF6F43203B.png"  transform="matrix(0.5 0 0 0.5 0 0)">
</image>
<g id="Layer_2">
</g>
<circle fill="#F27030" cx="25" cy="25" r="25"/>
<g id="Shape_12_copy">
	<path fill-rule="evenodd" clip-rule="evenodd" fill="#FFFFFF" d="M30.256,13h-10.51C18.782,13,18,13.814,18,14.818v20.365
		C18,36.186,18.782,37,19.746,37h10.508C31.218,37,32,36.186,32,35.182V14.816C32,13.813,31.219,13,30.256,13z M22.556,33.694
		h-2.164v-1.781h2.164V33.694z M22.556,30.474h-2.164v-1.781h2.164V30.474z M26.082,33.694h-2.164v-1.781h2.164V33.694z
		 M26.082,30.474h-2.164v-1.781h2.164V30.474z M29.609,33.694h-2.164v-1.781h2.164V33.694z M29.609,30.474h-2.164v-1.781h2.164
		V30.474z M29.609,26.163h-9.217v-9.423h9.217V26.163z"/>
</g>
</svg>
