<?xml version="1.0" encoding="iso-8859-1"?>
<!-- Generator: Adobe Illustrator 18.0.0, SVG Export Plug-In . SVG Version: 6.00 Build 0)  -->
<!DOCTYPE svg PUBLIC "-//W3C//DTD SVG 1.1 Basic//EN" "http://www.w3.org/Graphics/SVG/1.1/DTD/svg11-basic.dtd">
<svg version="1.1" baseProfile="basic" id="Layer_1"
	 xmlns="http://www.w3.org/2000/svg" xmlns:xlink="http://www.w3.org/1999/xlink" x="0px" y="0px" viewBox="0 0 13 12"
	 xml:space="preserve">
<g id="Shape_17">
	<path fill-rule="evenodd" clip-rule="evenodd" fill="#168E9A" d="M2,0v3H0v7.417C0,11.291,0.709,12,1.583,12h9.833
		C12.292,12,13,11.292,13,10.416V0H2z M12,10.416C12,10.738,11.738,11,11.417,11H1.583C1.262,11,1,10.738,1,10.416V4h1v5
		c0,0.277,0.223,0.5,0.5,0.5C2.777,9.5,3,9.276,3,9V1h9V10.416z M11,1.998H4v2h7V1.998z M7,4.999H4v0.5h3V4.999z M8,5.499h3v-0.5H8
		V5.499z M7,6.333H4v0.5h3V6.333z M8,6.833h3v-0.5H8V6.833z M7,7.666H4v0.5h3V7.666z M8,8.167h3v-0.5H8V8.167z M7,9H4v0.5h3V9z
		 M8,9.5h3V9H8V9.5z"/>
</g>
</svg>
