<?xml version="1.0" encoding="iso-8859-1"?>
<!-- Generator: Adobe Illustrator 18.0.0, SVG Export Plug-In . SVG Version: 6.00 Build 0)  -->
<!DOCTYPE svg PUBLIC "-//W3C//DTD SVG 1.1 Basic//EN" "http://www.w3.org/Graphics/SVG/1.1/DTD/svg11-basic.dtd">
<svg version="1.1" baseProfile="basic" xmlns="http://www.w3.org/2000/svg" xmlns:xlink="http://www.w3.org/1999/xlink" x="0px"
	 y="0px" viewBox="0 0 50 50" xml:space="preserve">
<g id="Layer_1">
	
		<image display="none" overflow="visible" width="100" height="100" id="Layer_13_xA0_Image_2_" xlink:href="EF595003001EAEFC.png"  transform="matrix(0.5 0 0 0.5 0 0)">
	</image>
	<g id="Layer_3">
		<circle fill-rule="evenodd" clip-rule="evenodd" fill="#F27030" cx="25" cy="25" r="25"/>
	</g>
	<g id="Shape_14">
		<path fill-rule="evenodd" clip-rule="evenodd" fill="#FFFFFF" d="M34.61,15.499c-0.26,0-6.073,0.036-9.61,2.887
			c-3.537-2.851-9.35-2.887-9.61-2.887H14.5v17.716h0.89c4.643,0,7.551,0.868,8.679,1.284h1.855
			c1.112-0.415,3.999-1.284,8.687-1.284h0.89V15.499H34.61z M24.11,32.635c-1.426-0.463-4.035-1.095-7.831-1.181V17.312
			c1.727,0.126,5.559,0.63,7.831,2.643V32.635z M33.72,31.453c-3.796,0.087-6.404,0.718-7.831,1.181v-12.68
			c2.272-2.013,6.104-2.517,7.831-2.643V31.453z"/>
	</g>
</g>
<g id="Layer_2">
</g>
</svg>
