<?xml version="1.0" encoding="iso-8859-1"?>
<!-- Generator: Adobe Illustrator 18.0.0, SVG Export Plug-In . SVG Version: 6.00 Build 0)  -->
<!DOCTYPE svg PUBLIC "-//W3C//DTD SVG 1.1 Basic//EN" "http://www.w3.org/Graphics/SVG/1.1/DTD/svg11-basic.dtd">
<svg version="1.1" baseProfile="basic" id="Layer_1"
	 xmlns="http://www.w3.org/2000/svg" xmlns:xlink="http://www.w3.org/1999/xlink" x="0px" y="0px" viewBox="0 0 17.49 17.49"
	 xml:space="preserve">
<g id="Shape_9">
	<path fill-rule="evenodd" clip-rule="evenodd" fill="#FFFFFF" d="M17.254,14.954l-4.477-4.478c0.639-1.044,1.027-2.26,1.027-3.575
		C13.803,3.091,10.712,0,6.902,0C3.091,0,0,3.091,0,6.902c0,3.811,3.091,6.902,6.901,6.902c1.315,0,2.531-0.387,3.574-1.025
		l4.477,4.476c0.315,0.315,0.836,0.312,1.15,0l1.15-1.151C17.568,15.79,17.568,15.269,17.254,14.954z M6.902,11.503
		c-2.541,0-4.601-2.06-4.601-4.601c0-2.541,2.06-4.601,4.601-4.601c2.541,0,4.601,2.06,4.601,4.601
		C11.503,9.443,9.442,11.503,6.902,11.503z"/>
</g>
</svg>
